<?xml version="1.0" encoding="utf-8"?>
<!-- Generator: Adobe Illustrator 23.0.1, SVG Export Plug-In . SVG Version: 6.00 Build 0)  -->
<svg version="1.1" id="Capa_1" xmlns="http://www.w3.org/2000/svg" xmlns:xlink="http://www.w3.org/1999/xlink" x="0px" y="0px"
	 viewBox="0 0 494 80" style="enable-background:new 0 0 494 80;" xml:space="preserve">
<style type="text/css">
	.st0{fill:#FFFFFF;}
	.st1{font-family:'Akashi';}
	.st2{font-size:46.1806px;}
	.st3{fill:#B3B3B3;}
</style>
<text transform="matrix(0.8566 0 0 1 108 58.0156)" class="st0 st1 st2">BARBARIAN</text>
<text transform="matrix(0.8213 0 0 1 361 60.0156)" class="st0 st1 st2">NERD</text>
<g>
	<path class="st0" d="M20.1,21.1L19,33.8c0,0-6.8-4.7-8.6-14.4s3.1-14,3.1-14S13.7,16.6,20.1,21.1z"/>
	<path class="st0" d="M41.2,51.1l-8.9-8.3v-4.5c5,1.3,9.5,1.5,12.2,1.4V15.6c-9.2,0.2-18.7,3.8-19.8,6.2c-1.1,2.4-4.6,32.4-4.6,32.4
		c1.1,1.2,6.4,6.9,6.4,6.9l1.1,9.9c3.8,2.1,8.9,2.9,12.5,3.3L41.2,51.1z"/>
	<path class="st3" d="M68.9,21.1L70,33.8c0,0,6.8-4.7,8.6-14.4c1.8-9.7-3.1-14-3.1-14S75.3,16.6,68.9,21.1z"/>
	<path class="st3" d="M47.8,51.1l8.9-8.3v-4.5c-5,1.3-9.5,1.5-12.2,1.4V15.6c9.2,0.2,18.7,3.8,19.8,6.2c1.1,2.4,4.6,32.4,4.6,32.4
		c-1.1,1.2-6.4,6.9-6.4,6.9L61.4,71c-3.8,2.1-8.9,2.9-12.5,3.3L47.8,51.1z"/>
</g>
</svg>
